<?xml version="1.0" standalone="no"?>
<!DOCTYPE svg PUBLIC "-//W3C//DTD SVG 20010904//EN"
 "http://www.w3.org/TR/2001/REC-SVG-20010904/DTD/svg10.dtd">
<svg version="1.0" xmlns="http://www.w3.org/2000/svg"
 width="204.000000pt" height="247.000000pt" viewBox="0 0 204.000000 247.000000"
 preserveAspectRatio="xMidYMid meet">

<g transform="translate(0.000000,247.000000) scale(0.100000,-0.100000)"
fill="#000000" stroke="none">
<path d="M1682 2448 c-5 -21 -13 -23 -30 -6 -9 9 -12 5 -12 -21 0 -22 4 -30
11 -25 9 5 10 -1 5 -22 -10 -39 -14 -41 -31 -18 -8 10 -15 14 -15 7 0 -6 -3
-19 -7 -29 -4 -12 -3 -15 5 -10 22 13 31 -3 20 -36 -10 -27 -12 -29 -23 -15
-17 24 -25 21 -25 -8 0 -19 4 -23 16 -18 14 5 16 1 12 -22 -3 -16 -1 -36 4
-45 12 -18 -29 -89 -265 -459 -193 -305 -230 -352 -378 -497 -218 -211 -413
-353 -729 -529 -134 -74 -209 -127 -224 -160 -14 -28 -13 -32 7 -53 41 -45 47
-45 273 -17 187 23 225 25 295 16 44 -6 94 -19 110 -28 31 -19 29 -14 84 -213
27 -98 88 -225 112 -235 28 -10 60 42 100 165 68 207 223 864 243 1025 6 50
15 100 20 112 22 54 473 783 485 783 7 0 24 9 39 21 24 19 31 18 27 -4 -1 -5
12 0 29 9 16 10 30 21 30 24 0 15 -14 19 -27 9 -7 -6 -13 -8 -13 -3 0 9 64 64
74 64 3 0 2 -8 -1 -17 -7 -17 -5 -17 17 -2 31 20 37 39 13 39 -15 0 -14 3 7
20 16 12 27 15 31 8 5 -7 18 -3 38 11 36 26 40 36 10 28 -16 -4 -19 -2 -14 11
20 47 21 45 -151 103 -153 51 -167 54 -172 37z m-7 -314 c14 -9 25 -20 25 -26
0 -5 -15 -33 -34 -62 -19 -30 -76 -125 -126 -212 -106 -182 -193 -325 -329
-539 -52 -82 -132 -217 -178 -299 -45 -82 -87 -153 -93 -156 -6 -4 3 -18 19
-34 26 -25 28 -32 19 -52 -6 -13 -14 -24 -18 -24 -5 0 -152 104 -178 125 -2 2
5 17 16 34 l19 31 19 -21 c10 -11 28 -26 39 -31 19 -11 19 -10 2 15 -17 26
-16 27 57 154 41 70 120 193 175 273 55 80 133 199 172 265 40 66 125 201 189
300 64 99 130 201 146 227 16 27 30 48 32 48 1 0 14 -7 27 -16z m-795 -1055
c-189 -176 -403 -327 -632 -446 -82 -42 -160 -86 -173 -99 -14 -13 -25 -19
-25 -15 0 19 83 82 152 117 145 72 401 241 570 375 95 76 175 138 178 138 3 0
-29 -31 -70 -70z m-340 -349 c0 -13 -7 -20 -20 -20 -13 0 -20 7 -20 20 0 13 7
20 20 20 13 0 20 -7 20 -20z m-91 -63 c6 -8 8 -17 4 -20 -12 -12 -53 -7 -53 6
0 28 30 37 49 14z m-111 -80 c4 -20 -25 -34 -40 -19 -15 15 -1 44 19 40 10 -2
19 -11 21 -21z"/>
</g>
</svg>
